<svg width="9" height="16" viewBox="0 0 9 16" fill="none" xmlns="http://www.w3.org/2000/svg">
<path d="M7.81017 0.6698L5.95866 0.666748C3.87856 0.666748 2.5343 2.08347 2.5343 4.27623V5.94045H0.672693C0.511828 5.94045 0.381561 6.07442 0.381561 6.23966V8.65092C0.381561 8.81617 0.511977 8.94998 0.672693 8.94998H2.5343V15.0344C2.5343 15.1996 2.66457 15.3334 2.82543 15.3334H5.2543C5.41517 15.3334 5.54544 15.1994 5.54544 15.0344V8.94998H7.72209C7.88296 8.94998 8.01322 8.81617 8.01322 8.65092L8.01411 6.23966C8.01411 6.16032 7.98337 6.08433 7.92885 6.02818C7.87434 5.97203 7.80007 5.94045 7.72283 5.94045H5.54544V4.52967C5.54544 3.8516 5.70274 3.50737 6.56261 3.50737L7.80988 3.50691C7.97059 3.50691 8.10086 3.37295 8.10086 3.20785V0.968861C8.10086 0.80392 7.97074 0.670105 7.81017 0.6698Z" fill="white"/>
</svg>
