<svg width="14" height="14" viewBox="0 0 14 14" fill="none" xmlns="http://www.w3.org/2000/svg">
<path d="M13.7552 4.25329C13.7239 3.54484 13.6094 3.05778 13.4452 2.63574C13.2759 2.18776 13.0155 1.78668 12.6742 1.45326C12.3408 1.11465 11.9371 0.851542 11.4943 0.684883C11.0698 0.520768 10.5853 0.406203 9.87685 0.374967C9.16311 0.341086 8.93652 0.333252 7.12627 0.333252C5.31603 0.333252 5.08944 0.341086 4.37834 0.372322C3.66989 0.403558 3.18284 0.518225 2.7609 0.682238C2.31282 0.851542 1.91174 1.11201 1.57832 1.45326C1.23971 1.78668 0.976704 2.19041 0.809944 2.6332C0.645829 3.05778 0.531264 3.54219 0.500028 4.25064C0.466147 4.96438 0.458313 5.19097 0.458313 7.00122C0.458313 8.81147 0.466147 9.03806 0.497383 9.74915C0.528619 10.4576 0.643285 10.9447 0.8074 11.3667C0.976704 11.8147 1.23971 12.2158 1.57832 12.5492C1.91174 12.8878 2.31546 13.1509 2.75826 13.3176C3.18284 13.4817 3.66725 13.5962 4.3758 13.6275C5.08679 13.6588 5.31348 13.6665 7.12373 13.6665C8.93398 13.6665 9.16056 13.6588 9.87166 13.6275C10.5801 13.5962 11.0672 13.4817 11.4891 13.3176C12.3852 12.9711 13.0936 12.2627 13.4401 11.3667C13.6041 10.9421 13.7187 10.4576 13.75 9.74915C13.7812 9.03806 13.789 8.81147 13.789 7.00122C13.789 5.19097 13.7864 4.96438 13.7552 4.25329ZM12.5545 9.69706C12.5258 10.3482 12.4164 10.6999 12.3252 10.9343C12.1012 11.5151 11.6402 11.9761 11.0593 12.2002C10.8249 12.2914 10.4707 12.4007 9.82211 12.4293C9.11885 12.4607 8.90793 12.4684 7.12892 12.4684C5.34991 12.4684 5.13634 12.4607 4.43563 12.4293C3.78446 12.4007 3.43283 12.2914 3.19841 12.2002C2.90935 12.0934 2.64624 11.9241 2.43267 11.7027C2.21128 11.4865 2.04197 11.226 1.93514 10.9369C1.84398 10.7025 1.7346 10.3482 1.70601 9.6997C1.67467 8.99644 1.66694 8.78542 1.66694 7.00641C1.66694 5.2274 1.67467 5.01383 1.70601 4.31322C1.7346 3.66205 1.84398 3.31042 1.93514 3.076C2.04197 2.78684 2.21128 2.52382 2.43532 2.31016C2.65143 2.08876 2.91189 1.91946 3.20105 1.81273C3.43547 1.72156 3.78975 1.61219 4.43827 1.5835C5.14153 1.55226 5.35255 1.54443 7.13146 1.54443C8.91312 1.54443 9.12404 1.55226 9.82475 1.5835C10.4759 1.61219 10.8276 1.72156 11.062 1.81273C11.351 1.91946 11.6141 2.08876 11.8277 2.31016C12.0491 2.52637 12.2184 2.78684 12.3252 3.076C12.4164 3.31042 12.5258 3.66459 12.5545 4.31322C12.5857 5.01648 12.5935 5.2274 12.5935 7.00641C12.5935 8.78542 12.5857 8.9938 12.5545 9.69706Z" fill="white"/>
<path d="M7.12627 3.57607C5.23534 3.57607 3.70112 5.11019 3.70112 7.00123C3.70112 8.89226 5.23534 10.4264 7.12627 10.4264C9.01731 10.4264 10.5514 8.89226 10.5514 7.00123C10.5514 5.11019 9.01731 3.57607 7.12627 3.57607ZM7.12627 9.22304C5.89953 9.22304 4.90446 8.22807 4.90446 7.00123C4.90446 5.77438 5.89953 4.77941 7.12627 4.77941C8.35311 4.77941 9.34808 5.77438 9.34808 7.00123C9.34808 8.22807 8.35311 9.22304 7.12627 9.22304Z" fill="white"/>
<path d="M11.4866 3.44065C11.4866 3.88223 11.1285 4.24027 10.6869 4.24027C10.2453 4.24027 9.88724 3.88223 9.88724 3.44065C9.88724 2.99898 10.2453 2.64103 10.6869 2.64103C11.1285 2.64103 11.4866 2.99898 11.4866 3.44065Z" fill="white"/>
</svg>
