<svg width="9" height="16" viewBox="0 0 9 16" fill="none" xmlns="http://www.w3.org/2000/svg">
<g id="facebooc"><path d="M7.81017 0.6698L5.95866 0.666748C3.87856 0.666748 2.5343 2.08347 2.5343 4.27623V5.94045H0.672693C0.511828 5.94045 0.381561 6.07442 0.381561 6.23966V8.65092C0.381561 8.81617 0.511977 8.94998 0.672693 8.94998H2.5343V15.0344C2.5343 15.1996 2.66457 15.3334 2.82543 15.3334H5.2543C5.41517 15.3334 5.54544 15.1994 5.54544 15.0344V8.94998H7.72209C7.88296 8.94998 8.01322 8.81617 8.01322 8.65092L8.01411 6.23966C8.01411 6.16032 7.98337 6.08433 7.92885 6.02818C7.87434 5.97203 7.80007 5.94045 7.72283 5.94045H5.54544V4.52967C5.54544 3.8516 5.70274 3.50737 6.56261 3.50737L7.80988 3.50691C7.97059 3.50691 8.10086 3.37295 8.10086 3.20785V0.968861C8.10086 0.80392 7.97074 0.670105 7.81017 0.6698Z" fill="white"/>
</g>
<g id="inst"><path d="M13.7552 4.25329C13.7239 3.54484 13.6094 3.05778 13.4452 2.63574C13.2759 2.18776 13.0155 1.78668 12.6742 1.45326C12.3408 1.11465 11.9371 0.851542 11.4943 0.684883C11.0698 0.520768 10.5853 0.406203 9.87685 0.374967C9.16311 0.341086 8.93652 0.333252 7.12627 0.333252C5.31603 0.333252 5.08944 0.341086 4.37834 0.372322C3.66989 0.403558 3.18284 0.518225 2.7609 0.682238C2.31282 0.851542 1.91174 1.11201 1.57832 1.45326C1.23971 1.78668 0.976704 2.19041 0.809944 2.6332C0.645829 3.05778 0.531264 3.54219 0.500028 4.25064C0.466147 4.96438 0.458313 5.19097 0.458313 7.00122C0.458313 8.81147 0.466147 9.03806 0.497383 9.74915C0.528619 10.4576 0.643285 10.9447 0.8074 11.3667C0.976704 11.8147 1.23971 12.2158 1.57832 12.5492C1.91174 12.8878 2.31546 13.1509 2.75826 13.3176C3.18284 13.4817 3.66725 13.5962 4.3758 13.6275C5.08679 13.6588 5.31348 13.6665 7.12373 13.6665C8.93398 13.6665 9.16056 13.6588 9.87166 13.6275C10.5801 13.5962 11.0672 13.4817 11.4891 13.3176C12.3852 12.9711 13.0936 12.2627 13.4401 11.3667C13.6041 10.9421 13.7187 10.4576 13.75 9.74915C13.7812 9.03806 13.789 8.81147 13.789 7.00122C13.789 5.19097 13.7864 4.96438 13.7552 4.25329ZM12.5545 9.69706C12.5258 10.3482 12.4164 10.6999 12.3252 10.9343C12.1012 11.5151 11.6402 11.9761 11.0593 12.2002C10.8249 12.2914 10.4707 12.4007 9.82211 12.4293C9.11885 12.4607 8.90793 12.4684 7.12892 12.4684C5.34991 12.4684 5.13634 12.4607 4.43563 12.4293C3.78446 12.4007 3.43283 12.2914 3.19841 12.2002C2.90935 12.0934 2.64624 11.9241 2.43267 11.7027C2.21128 11.4865 2.04197 11.226 1.93514 10.9369C1.84398 10.7025 1.7346 10.3482 1.70601 9.6997C1.67467 8.99644 1.66694 8.78542 1.66694 7.00641C1.66694 5.2274 1.67467 5.01383 1.70601 4.31322C1.7346 3.66205 1.84398 3.31042 1.93514 3.076C2.04197 2.78684 2.21128 2.52382 2.43532 2.31016C2.65143 2.08876 2.91189 1.91946 3.20105 1.81273C3.43547 1.72156 3.78975 1.61219 4.43827 1.5835C5.14153 1.55226 5.35255 1.54443 7.13146 1.54443C8.91312 1.54443 9.12404 1.55226 9.82475 1.5835C10.4759 1.61219 10.8276 1.72156 11.062 1.81273C11.351 1.91946 11.6141 2.08876 11.8277 2.31016C12.0491 2.52637 12.2184 2.78684 12.3252 3.076C12.4164 3.31042 12.5258 3.66459 12.5545 4.31322C12.5857 5.01648 12.5935 5.2274 12.5935 7.00641C12.5935 8.78542 12.5857 8.9938 12.5545 9.69706Z" fill="white"/>
<path d="M7.12627 3.57607C5.23534 3.57607 3.70112 5.11019 3.70112 7.00123C3.70112 8.89226 5.23534 10.4264 7.12627 10.4264C9.01731 10.4264 10.5514 8.89226 10.5514 7.00123C10.5514 5.11019 9.01731 3.57607 7.12627 3.57607ZM7.12627 9.22304C5.89953 9.22304 4.90446 8.22807 4.90446 7.00123C4.90446 5.77438 5.89953 4.77941 7.12627 4.77941C8.35311 4.77941 9.34808 5.77438 9.34808 7.00123C9.34808 8.22807 8.35311 9.22304 7.12627 9.22304Z" fill="white"/>
<path d="M11.4866 3.44065C11.4866 3.88223 11.1285 4.24027 10.6869 4.24027C10.2453 4.24027 9.88724 3.88223 9.88724 3.44065C9.88724 2.99898 10.2453 2.64103 10.6869 2.64103C11.1285 2.64103 11.4866 2.99898 11.4866 3.44065Z" fill="white"/>
</g>
<g id="pinterest"><path d="M8.3025 0.666748C4.25367 0.667359 2.10156 3.24323 2.10156 6.05194C2.10156 7.35423 2.83452 8.9792 4.00812 9.49437C4.34291 9.6441 4.2986 9.46137 4.58661 8.36747C4.60938 8.27641 4.59769 8.19758 4.52384 8.11263C2.84622 6.18577 4.19644 2.22449 8.0631 2.22449C13.6591 2.22449 12.6135 9.9136 9.03669 9.9136C8.11479 9.9136 7.42799 9.19492 7.64523 8.30575C7.90863 7.24667 8.42435 6.10816 8.42435 5.34487C8.42435 3.42106 5.53805 3.70646 5.53805 6.25544C5.53805 7.04317 5.81868 7.57485 5.81868 7.57485C5.81868 7.57485 4.89001 11.3002 4.7177 11.9963C4.42599 13.1745 4.75708 15.0818 4.78601 15.2462C4.80385 15.3367 4.90601 15.3654 4.96325 15.2908C5.05494 15.1717 6.17746 13.5815 6.49194 12.432C6.60641 12.0134 7.07597 10.3145 7.07597 10.3145C7.38553 10.8694 8.27788 11.3338 9.2287 11.3338C12.0571 11.3338 14.1016 8.86492 14.1016 5.80138C14.0917 2.86433 11.5605 0.666748 8.3025 0.666748V0.666748Z" fill="white"/>
</g>
<g id="Twitter"><path d="M15.1016 3.84839C14.5863 4.06701 14.0334 4.21528 13.4525 4.28147C14.0456 3.94137 14.4997 3.40192 14.7149 2.76109C14.1585 3.07605 13.5443 3.30475 12.8899 3.42873C12.3659 2.89346 11.6206 2.56006 10.7938 2.56006C9.20776 2.56006 7.92175 3.79143 7.92175 5.30929C7.92175 5.52457 7.94712 5.73482 7.99612 5.93588C5.60957 5.8211 3.49335 4.72627 2.07699 3.06265C1.8294 3.46809 1.68856 3.94051 1.68856 4.44481C1.68856 5.39892 2.19597 6.24078 2.96583 6.73332C2.49516 6.71825 2.05249 6.59427 1.66495 6.3882V6.42254C1.66495 7.75444 2.65527 8.86602 3.96839 9.11901C3.7278 9.181 3.47411 9.21534 3.21165 9.21534C3.0262 9.21534 2.84685 9.19775 2.67101 9.16424C3.03668 10.2574 4.097 11.0523 5.35327 11.0741C4.37082 11.8113 3.13205 12.2494 1.78656 12.2494C1.55473 12.2494 1.32639 12.236 1.10156 12.2117C2.37271 12.9933 3.8818 13.4489 5.50375 13.4489C10.7869 13.4489 13.6747 9.25891 13.6747 5.62511L13.6651 5.2691C14.2294 4.88374 14.7175 4.39958 15.1016 3.84839Z" fill="white"/>
</g>
<g id="Youtube">
<path fill-rule="evenodd" clip-rule="evenodd" d="M14.3618 2.74255C15.0471 2.92712 15.5875 3.4674 15.7719 4.15282C16.1147 5.40477 16.1015 8.01438 16.1015 8.01438C16.1015 8.01438 16.1015 10.6107 15.772 11.8627C15.5875 12.548 15.0472 13.0884 14.3618 13.2729C13.1097 13.6025 8.10153 13.6025 8.10153 13.6025C8.10153 13.6025 3.10643 13.6025 1.8413 13.2598C1.15588 13.0753 0.615598 12.5349 0.431029 11.8496C0.101562 10.6107 0.101562 8.00119 0.101562 8.00119C0.101562 8.00119 0.101562 5.40477 0.431029 4.15282C0.615476 3.46752 1.16906 2.91394 1.84118 2.72949C3.09325 2.3999 8.10141 2.3999 8.10141 2.3999C8.10141 2.3999 13.1097 2.3999 14.3618 2.74255ZM10.6715 8.00121L6.50681 10.3999V5.60253L10.6715 8.00121Z" fill="white"/>
</g>
<g id="viber"><path d="M17.0854 2.92468C16.164 1.99396 15.0665 1.25601 13.8569 0.75388C12.6473 0.251753 11.3499 -0.00450263 10.0402 5.9869e-05C4.55276 5.9869e-05 0.0804022 4.47242 0.0804022 9.95986C0.0804022 11.7187 0.542714 13.4272 1.40704 14.9347L0 20.1006L5.27638 18.7136C6.73367 19.5076 8.37186 19.9297 10.0402 19.9297C15.5276 19.9297 20 15.4573 20 9.96991C20 7.30659 18.9648 4.80408 17.0854 2.92468ZM10.0402 18.2413C8.55276 18.2413 7.09548 17.8393 5.81909 17.0855L5.51759 16.9046L2.38191 17.7287L3.21608 14.6734L3.01508 14.3619C2.18869 13.0422 1.74989 11.5169 1.74874 9.95986C1.74874 5.39704 5.46734 1.67845 10.0301 1.67845C12.2412 1.67845 14.3216 2.54277 15.8794 4.11061C16.6507 4.87842 17.262 5.79168 17.6778 6.79747C18.0936 7.80326 18.3056 8.88158 18.3015 9.96991C18.3216 14.5327 14.603 18.2413 10.0402 18.2413ZM14.5829 12.0503C14.3317 11.9297 13.1055 11.3267 12.8844 11.2362C12.6533 11.1558 12.4925 11.1156 12.3216 11.3568C12.1508 11.6081 11.6784 12.1709 11.5377 12.3317C11.397 12.5026 11.2462 12.5227 10.995 12.392C10.7437 12.2714 9.9397 12.0001 8.99497 11.1558C8.25126 10.4925 7.75879 9.67845 7.60804 9.4272C7.46734 9.17594 7.58794 9.04529 7.71859 8.91463C7.82914 8.80408 7.96985 8.62317 8.09045 8.48247C8.21105 8.34177 8.26131 8.23121 8.34171 8.07041C8.42211 7.89956 8.38191 7.75885 8.32161 7.63825C8.2613 7.51765 7.75879 6.29152 7.55779 5.789C7.35678 5.30659 7.14573 5.36689 6.99497 5.35684H6.51256C6.34171 5.35684 6.0804 5.41715 5.84925 5.6684C5.62814 5.91966 4.98492 6.52267 4.98492 7.7488C4.98492 8.97493 5.8794 10.1609 6 10.3217C6.1206 10.4925 7.75879 13.0051 10.2513 14.0805C10.8442 14.3418 11.3065 14.4925 11.6683 14.6031C12.2613 14.794 12.804 14.7639 13.2362 14.7036C13.7186 14.6332 14.7136 14.1006 14.9146 13.5176C15.1256 12.9347 15.1256 12.4423 15.0553 12.3317C14.9849 12.2212 14.8342 12.1709 14.5829 12.0503Z" fill="white"/>
</g>
<g id="phone">
<path d="M17.5826 12.6547C16.61 12.5347 15.6441 12.3645 14.689 12.1449C14.4559 12.067 14.2065 12.0505 13.9651 12.0972C13.7237 12.1439 13.4985 12.2521 13.3111 12.4113C13.0677 12.6593 12.365 13.3529 11.6347 14.0694C9.01816 12.7831 6.90209 10.6654 5.61784 8.04793C6.32976 7.31764 6.99575 6.61951 7.26673 6.37608C7.42597 6.18875 7.53415 5.96349 7.58082 5.7221C7.62749 5.48071 7.61106 5.23136 7.53313 4.99817C7.31322 4.04157 7.14305 3.07421 7.0233 2.09999C7.01047 1.97593 6.97252 1.85578 6.91174 1.74687C6.85097 1.63795 6.76865 1.54256 6.66981 1.46649C6.57097 1.39043 6.45767 1.33529 6.33683 1.30443C6.21598 1.27358 6.09012 1.26765 5.96691 1.28702H2.05367C1.89214 1.30161 1.74093 1.37271 1.62667 1.48781C1.51241 1.60291 1.44242 1.75464 1.42902 1.91627C1.1764 5.44829 3.14681 9.22833 3.5464 9.95403V9.98159L3.60151 10.0872C5.03193 12.5681 7.09154 14.6277 9.57242 16.0581L9.77452 16.173C10.6931 16.6598 14.3446 18.497 17.7572 18.2444C17.9204 18.2331 18.0743 18.164 18.1913 18.0496C18.3083 17.9351 18.3807 17.7827 18.3956 17.6198V13.7111C18.415 13.5879 18.409 13.462 18.3782 13.3412C18.3473 13.2204 18.2922 13.1071 18.2161 13.0082C18.1401 12.9094 18.0447 12.8271 17.9358 12.7663C17.8268 12.7055 17.7067 12.6675 17.5826 12.6547Z" fill="white"/>
</g>
<g id="search">
<path fill-rule="evenodd" clip-rule="evenodd" d="M5.55369 10.2906C5.55369 9.66856 5.67621 9.05259 5.91427 8.47788C6.15232 7.90317 6.50124 7.38097 6.9411 6.94111C7.38096 6.50125 7.90316 6.15233 8.47787 5.91428C9.05258 5.67622 9.66855 5.5537 10.2906 5.5537C10.9127 5.5537 11.5286 5.67622 12.1034 5.91428C12.6781 6.15233 13.2003 6.50125 13.6401 6.94111C14.08 7.38097 14.4289 7.90317 14.667 8.47788C14.905 9.05259 15.0275 9.66856 15.0275 10.2906C15.0275 11.5469 14.5285 12.7518 13.6401 13.6401C12.7518 14.5285 11.5469 15.0275 10.2906 15.0275C9.0343 15.0275 7.82945 14.5285 6.9411 13.6401C6.05276 12.7518 5.55369 11.5469 5.55369 10.2906ZM10.2906 2.39575C9.05953 2.39588 7.84555 2.68391 6.74563 3.23682C5.6457 3.78973 4.69032 4.59221 3.9558 5.58015C3.22128 6.56808 2.72797 7.71411 2.51529 8.92667C2.3026 10.1392 2.37643 11.3847 2.73088 12.5637C3.08533 13.7426 3.71057 14.8223 4.55666 15.7166C5.40275 16.6108 6.44624 17.2948 7.60378 17.7139C8.76132 18.133 10.0008 18.2756 11.2233 18.1303C12.4458 17.985 13.6173 17.5558 14.6444 16.877L19.7002 21.934C19.9964 22.2302 20.3982 22.3966 20.8171 22.3966C21.236 22.3966 21.6377 22.2302 21.934 21.934C22.2302 21.6378 22.3966 21.236 22.3966 20.8171C22.3966 20.3982 22.2302 19.9965 21.934 19.7002L16.877 14.6444C17.6637 13.4545 18.1132 12.0737 18.1779 10.6487C18.2426 9.22378 17.92 7.80792 17.2445 6.55162C16.5689 5.29532 15.5656 4.24551 14.3412 3.51376C13.1168 2.78201 11.717 2.39565 10.2906 2.39575Z" fill="white"/>
</g>
</svg>